<?xml version="1.0" encoding="utf-8"?>
<!-- Generator: Adobe Illustrator 25.0.0, SVG Export Plug-In . SVG Version: 6.00 Build 0)  -->
<svg version="1.1" id="object" xmlns="http://www.w3.org/2000/svg" xmlns:xlink="http://www.w3.org/1999/xlink" x="0px" y="0px"
	 viewBox="0 0 1122 1122" style="enable-background:new 0 0 1122 1122;" xml:space="preserve">
<g>
	<circle style="fill:#F8B800;" cx="561" cy="561" r="556.23"/>
	<path style="fill:#FFFFFF;" d="M638.98,889l159.99-159.97c31.53-31.53,40.97-78.96,23.91-120.19
		c-17.07-41.21-57.28-68.07-101.88-68.07h-49.71v-229.8c0-60.91-49.37-110.28-110.28-110.28c-60.91,0-110.28,49.37-110.28,110.28
		v229.8h-49.71c-44.6,0-84.82,26.86-101.88,68.07c-5.65,13.65-8.4,27.98-8.4,42.18c0,28.69,11.21,56.91,32.31,78.01L483.03,889
		C526.09,932.07,595.91,932.07,638.98,889z"/>
</g>
</svg>
